<svg xmlns="http://www.w3.org/2000/svg" xml:space="preserve" width="100%" height="100%" version="1.1" viewBox="0 0 6595.22 5916.33"
 xmlns:xlink="http://www.w3.org/1999/xlink">
 <defs>
  <style type="text/css">
   <![CDATA[
    .fil1 {fill:#5B5B5B}
    .fil0 {fill:#5B5B5B;fill-rule:nonzero}
   ]]>
  </style>
 </defs>
  <path class="fil0" d="M474.15 4746.08c-23.4,-24.17 -50.38,-43.09 -81.07,-56.51 -30.56,-13.43 -62.4,-20.08 -95.39,-20.08 -31.72,0 -61.77,6.26 -90.03,18.92 -28.26,12.67 -53.2,30.18 -74.8,52.69 -21.62,22.63 -38.49,48.34 -50.39,77.36 -12.02,28.91 -18.03,59.08 -18.03,90.41 0,41.81 10.61,81.19 31.71,118.15 21.1,36.83 49.62,66.24 85.81,88.24 36.06,21.99 75.06,32.99 117.26,32.99 31.84,0 63.04,-6.9 93.6,-20.71 30.56,-13.82 57.67,-32.48 81.33,-56.14l0 79.79c-52.18,37.98 -109.84,56.9 -172.76,56.9 -53.32,0 -103.19,-13.29 -149.61,-39.9 -46.55,-26.59 -83.38,-62.65 -110.74,-108.17 -27.36,-45.53 -41.04,-95.14 -41.04,-148.85 0,-54.09 13.55,-104.22 40.65,-150.63 27.11,-46.42 63.82,-83.13 110.1,-110.23 46.17,-27.11 96.42,-40.66 150.64,-40.66 64.32,0 121.87,18.92 172.76,56.64l0 79.79zm100.5 91.43l91.31 0c19.17,0 37.47,3.46 54.6,10.36 17.13,6.78 31.33,17.91 42.32,33.25 11.13,15.21 16.63,34.78 16.63,58.44 0,25.44 -8.7,46.42 -26.09,63.04 19.06,7.54 33.89,19.18 44.63,34.66 10.61,15.6 15.98,34.14 15.98,55.75 0,35.93 -11.89,62.53 -35.8,79.53 -23.91,17.02 -54.47,25.58 -91.56,25.58l-112.02 0 0 -360.61zm88.36 151.92c16.88,0 30.57,-4.35 41.05,-13.05 10.36,-8.69 15.6,-20.83 15.6,-36.69 0,-16.12 -5.24,-28.52 -15.85,-37.08 -10.49,-8.58 -24.55,-12.92 -42.33,-12.92l-25.45 0 0 99.74 26.98 0zm23.79 156.52c21.61,0 37.98,-4.22 48.85,-12.54 10.87,-8.31 16.24,-22.5 16.24,-42.58 0,-34.9 -21.74,-52.29 -65.09,-52.29l-50.77 0 0 107.41 50.77 0zm207.03 75.18l0 -383.62 61.38 0 0 234.01 236.31 -257.02 0 383.62 -61.38 0 0 -234.01 -236.31 257.02zm405.1 -23.01l0 -360.61 61.38 0 0 308.44 98.21 0 0 -308.44 61.38 0 0 308.44 98.21 0 0 -308.44 61.38 0 0 308.44 27.62 0 0 147.31 -61.39 0 0 -95.14 -346.79 0zm460.35 -179.41c0,-35.03 8.44,-67.13 25.32,-96.41 16.87,-29.16 39.77,-52.31 68.79,-69.31 29.03,-17.01 60.87,-25.45 95.39,-25.45 26.35,0 51.03,4.86 74.05,14.71 23.01,9.85 43.22,23.53 60.61,41.17 17.39,17.78 30.82,38.11 40.4,61.39 9.6,23.14 14.45,47.69 14.45,73.9 0,34.4 -8.43,66.24 -25.44,95.4 -17.01,29.15 -40.02,52.17 -68.93,68.92 -29.02,16.75 -60.73,25.06 -95.14,25.06 -34.39,0 -66.1,-8.31 -95.13,-25.06 -28.9,-16.75 -51.92,-39.77 -68.93,-68.92 -17,-29.16 -25.44,-61 -25.44,-95.4zm61.38 -1.02c0,24.17 5.37,46.55 16.24,67.13 10.74,20.59 25.96,36.83 45.52,48.72 19.7,11.89 41.82,17.78 66.36,17.78 24.69,0 46.81,-5.89 66.37,-17.78 19.44,-11.89 34.66,-28.13 45.53,-48.59 10.87,-20.58 16.24,-42.97 16.24,-67.26 0,-24.04 -5.37,-46.41 -16.24,-66.87 -10.87,-20.47 -26.22,-36.71 -45.91,-48.6 -19.56,-11.9 -41.68,-17.91 -65.99,-17.91 -24.29,0 -46.41,6.01 -65.98,17.91 -19.69,11.89 -35.03,28.13 -45.9,48.72 -10.87,20.59 -16.24,42.83 -16.24,66.75zm397.43 -180.18l91.3 0c19.18,0 37.47,3.46 54.6,10.36 17.14,6.78 31.34,17.91 42.33,33.25 11.13,15.21 16.62,34.78 16.62,58.44 0,25.44 -8.69,46.42 -26.08,63.04 19.05,7.54 33.89,19.18 44.63,34.66 10.61,15.6 15.98,34.14 15.98,55.75 0,35.93 -11.89,62.53 -35.8,79.53 -23.92,17.02 -54.47,25.58 -91.57,25.58l-112.01 0 0 -360.61zm88.36 151.92c16.88,0 30.57,-4.35 41.05,-13.05 10.36,-8.69 15.6,-20.83 15.6,-36.69 0,-16.12 -5.24,-28.52 -15.86,-37.08 -10.48,-8.58 -24.54,-12.92 -42.32,-12.92l-25.45 0 0 99.74 26.98 0zm23.79 156.52c21.61,0 37.98,-4.22 48.84,-12.54 10.88,-8.31 16.25,-22.5 16.25,-42.58 0,-34.9 -21.74,-52.29 -65.09,-52.29l-50.77 0 0 107.41 50.77 0zm1169.15 -236.19c0,54.35 -13.55,104.47 -40.79,150.13 -27.11,45.78 -63.94,81.84 -110.35,108.44 -46.29,26.47 -96.55,39.76 -150.51,39.76 -53.97,0 -104.09,-13.29 -150.38,-39.76 -46.42,-26.6 -83.12,-62.66 -110.23,-108.44 -27.23,-45.66 -40.79,-95.78 -40.79,-150.13 0,-54.22 13.56,-104.34 40.79,-150.38 27.24,-46.03 64.06,-82.47 110.36,-109.33 46.16,-26.97 96.28,-40.4 150.25,-40.4 40.53,0 79.02,7.67 115.85,23.14 36.7,15.35 69.06,36.95 96.93,64.58 27.87,27.75 49.74,59.71 65.34,96.15 15.73,36.58 23.53,75.2 23.53,116.24zm-538.6 -0.89c0,42.84 10.61,82.6 31.84,119.43 21.22,36.71 49.99,65.99 86.44,87.6 36.45,21.61 75.96,32.35 118.67,32.35 42.83,0 82.48,-10.74 118.92,-32.35 36.44,-21.61 65.22,-50.89 86.45,-87.6 21.22,-36.83 31.84,-76.59 31.84,-119.43 0,-43.09 -10.49,-82.99 -31.46,-119.7 -20.98,-36.69 -49.75,-65.85 -86.32,-87.33 -36.44,-21.61 -76.34,-32.35 -119.43,-32.35 -43.23,0 -82.99,10.74 -119.43,32.35 -36.33,21.48 -65.1,50.64 -86.06,87.33 -20.98,36.71 -31.46,76.61 -31.46,119.7zm594.48 293.85l-12.14 -56.77c13.17,0 23.14,-4.35 30.05,-13.04 6.78,-8.7 11.77,-23.92 14.83,-45.66 3.07,-21.86 4.99,-49.87 5.5,-84.14 0.64,-34.14 1.02,-89.39 1.02,-165.6l231.71 0 0 360.61 -61.38 0 0 -305.36 -112.91 0c0,65.09 -0.77,115.08 -2.31,149.99 -1.4,35.04 -5.24,64.58 -11.11,88.88 -6.02,24.29 -15.61,42.2 -28.65,53.83 -13.18,11.51 -31.33,17.26 -54.61,17.26zm413.68 -171.85c0.12,22.12 5.24,42.32 15.34,60.73 10.11,18.41 24.17,33 42.07,43.74 17.91,10.61 38.1,15.98 60.74,15.98 45.78,0 82.35,-24.81 109.72,-74.43l52.17 30.05c-17.39,32.48 -40.41,57.42 -68.93,74.94 -28.51,17.52 -60.99,26.21 -97.56,26.21 -35.04,0 -65.86,-8.18 -92.71,-24.54 -26.73,-16.38 -47.44,-38.76 -61.9,-67.14 -14.57,-28.26 -21.85,-59.59 -21.85,-93.99 0,-35.8 6.77,-68.67 20.45,-98.33 13.69,-29.67 33.76,-53.2 60.36,-70.46 26.47,-17.39 57.92,-26.09 94.11,-26.09 35.81,0 66.62,8.83 92.46,26.34 25.83,17.52 45.39,41.69 58.69,72.51 13.3,30.82 19.95,65.6 19.95,104.48l-283.11 0zm218.53 -52.19c-2.68,-17 -9.08,-32.73 -19.18,-47.3 -10.1,-14.71 -22.63,-26.09 -37.72,-34.53 -15.09,-8.31 -31.46,-12.54 -48.85,-12.54 -26.47,0 -50.39,9.22 -71.86,27.63 -21.36,18.41 -34.02,40.66 -37.73,66.74l215.34 0zm205.75 -6.13l131.2 -135.04 82.1 0 -154.09 153.46 183.23 207.15 -81.19 0 -145.14 -164.32 -16.11 16.12 0 148.2 -61.38 0 0 -360.61 61.38 0 0 135.04zm566.1 -27.74l-1.54 0c-31.58,-40.29 -68.93,-60.5 -111.88,-60.5 -24.05,0 -45.79,6.01 -65.35,18.17 -19.44,12.15 -34.66,28.38 -45.65,48.84 -10.87,20.46 -16.37,42.59 -16.37,66.37 0,23.92 5.12,46.03 15.47,66.49 10.23,20.34 24.93,36.71 43.99,48.85 19.05,12.15 40.66,18.29 64.83,18.29 46.55,0 85.68,-20.71 117.27,-62.15l1.66 0 0 82.23c-36.45,24.42 -74.56,36.69 -114.46,36.69 -35.67,0 -68.15,-8.31 -97.44,-24.93 -29.41,-16.63 -52.42,-39.39 -69.17,-68.41 -16.75,-29.16 -25.06,-61.39 -25.06,-97.06 0,-34.91 8.69,-67.01 25.95,-96.03 17.27,-29.16 40.67,-52.17 70.33,-68.92 29.54,-16.76 61.64,-25.2 96.16,-25.2 40.79,0 77.88,12.02 111.26,35.94l0 81.33zm125.96 69.17c0,24.17 4.6,46.8 13.8,67.78 9.34,20.84 22.89,37.72 40.8,50.51 17.9,12.66 39.13,19.05 63.55,19.05 37.85,0 67.39,-13.17 88.62,-39.39 21.23,-26.21 31.84,-58.57 31.84,-97.18 0,-24.17 -4.99,-46.16 -14.71,-65.98 -9.71,-19.82 -23.78,-35.55 -42.06,-47.07 -18.42,-11.63 -39.9,-17.39 -64.46,-17.39 -22.76,0 -43.09,6.01 -61.12,18.03 -18.03,12.15 -31.97,28.01 -41.69,47.96 -9.72,19.82 -14.57,41.05 -14.57,63.68zm296.92 184.14l-61.38 0 0 -49.74 -1.53 0c-31.46,39.77 -72.9,59.71 -124.3,59.71 -25.58,0 -49.1,-5.11 -70.71,-15.21 -21.49,-10.23 -39.77,-24.17 -54.86,-41.69 -14.96,-17.51 -26.6,-37.72 -34.78,-60.74 -8.19,-22.89 -12.28,-46.81 -12.28,-71.74 0,-34.65 7.04,-66.49 21.1,-95.64 14.07,-29.29 34.27,-52.44 60.61,-69.7 26.47,-17.26 57.03,-25.83 91.69,-25.83 24.16,0 47.06,5.37 68.54,15.98 21.48,10.75 39.77,25.84 54.99,45.27l1.53 0 0 -51.28 61.38 0 0 360.61zm168.79 -165.72l0 165.72 -61.38 0 0 -360.61 61.38 0 0 142.71 162.66 0 0 -142.71 61.38 0 0 360.61 -61.38 0 0 -165.72 -162.66 0zm343.72 -194.89l231.71 0 0 308.44 27.63 0 0 147.31 -61.38 0 0 -95.14 -181.84 0 0 95.14 -61.39 0 0 -148.85 9.98 1.54c7.8,0 14.07,-5.76 18.8,-17.14 4.61,-11.38 8.05,-29.54 10.62,-54.22 2.42,-24.55 3.96,-54.73 4.73,-90.4 0.76,-35.55 1.14,-84.53 1.14,-146.68zm170.33 55.25l-112.91 0c0,70.33 -1.15,127.75 -3.45,172.25 -2.3,44.5 -7.93,71.47 -17.01,80.94l133.37 0 0 -253.19zm228.51 121.22c0,37.72 10.49,70.08 31.59,96.93 21.1,26.98 49.99,40.41 86.7,40.41 37.85,0 67.38,-13.17 88.61,-39.39 21.23,-26.21 31.84,-58.57 31.84,-97.18 0,-37.46 -10.99,-68.55 -32.99,-93.35 -21.99,-24.68 -51.4,-37.09 -88.23,-37.09 -22.76,0 -43.09,6.01 -61.25,18.03 -18.03,12.15 -31.84,28.01 -41.69,47.96 -9.72,19.82 -14.58,41.05 -14.58,63.68zm3.19 -125.19l1.54 0c14.84,-19.82 32.87,-35.03 54.22,-45.52 21.23,-10.49 44.63,-15.73 69.95,-15.73 25.83,0 49.48,5.12 70.97,15.35 21.35,10.22 39.64,24.29 54.73,42.19 15.09,17.78 26.73,38.24 34.91,61.26 8.05,23.01 12.15,47.06 12.15,72.37 0,34.53 -7.04,66.24 -20.97,95.14 -14.07,28.9 -34.27,51.79 -60.61,68.8 -26.47,17 -57.04,25.44 -91.95,25.44 -24.42,0 -47.57,-5.24 -69.18,-15.73 -21.74,-10.48 -39.76,-25.44 -54.22,-44.75l-1.54 0 0 253.06 -61.37 0 0 -563.16 61.37 0 0 51.28z"/>
  <path class="fil0" d="M1221.19 5566.31l0 211.06 -42.1 0 0 -247.37 195.79 0 0 247.37 -42.1 0 0 -211.06 -111.59 0zm268.35 84.74c0,25.88 7.2,48.07 21.67,66.5 14.48,18.51 34.3,27.71 59.47,27.71 25.97,0 46.24,-9.03 60.79,-27.02 14.57,-17.98 21.85,-40.17 21.85,-66.66 0,-25.71 -7.54,-47.02 -22.63,-64.04 -15.09,-16.93 -35.27,-25.44 -60.53,-25.44 -15.61,0 -29.56,4.12 -42.02,12.37 -12.37,8.33 -21.84,19.21 -28.6,32.89 -6.67,13.6 -10,28.16 -10,43.69zm2.2 -85.88l1.05 0c10.17,-13.6 22.55,-24.04 37.19,-31.23 14.57,-7.19 30.61,-10.79 47.99,-10.79 17.72,0 33.95,3.51 48.69,10.53 14.64,7.02 27.19,16.67 37.54,28.95 10.35,12.19 18.34,26.22 23.95,42.02 5.52,15.78 8.33,32.28 8.33,49.64 0,23.69 -4.82,45.45 -14.39,65.27 -9.64,19.83 -23.51,35.53 -41.57,47.2 -18.16,11.67 -39.13,17.45 -63.08,17.45 -16.76,0 -32.63,-3.59 -47.46,-10.78 -14.91,-7.19 -27.28,-17.46 -37.19,-30.71l-1.05 0 0 173.61 -42.11 0 0 -386.33 42.11 0 0 35.17zm260.45 228l0 -263.17 42.1 0 0 160.53 162.11 -176.33 0 263.17 -42.1 0 0 -160.53 -162.11 176.33zm277.91 -263.17l62.63 0c13.16,0 25.7,2.36 37.45,7.1 11.76,4.65 21.5,12.28 29.04,22.8 7.64,10.44 11.41,23.86 11.41,40.09 0,17.46 -5.97,31.85 -17.9,43.26 13.07,5.17 23.24,13.15 30.61,23.77 7.29,10.7 10.97,23.42 10.97,38.24 0,24.65 -8.16,42.9 -24.57,54.57 -16.39,11.67 -37.37,17.54 -62.8,17.54l-76.84 0 0 -247.37zm60.61 104.2c11.57,0 20.96,-2.97 28.16,-8.94 7.1,-5.96 10.7,-14.29 10.7,-25.18 0,-11.05 -3.6,-19.56 -10.88,-25.44 -7.19,-5.87 -16.84,-8.85 -29.03,-8.85l-17.46 0 0 68.41 18.51 0zm16.31 107.38c14.83,0 26.06,-2.9 33.51,-8.59 7.46,-5.71 11.15,-15.44 11.15,-29.21 0,-23.96 -14.92,-35.89 -44.66,-35.89l-34.82 0 0 73.69 34.82 0zm167.29 -90.53c0,16.58 3.16,32.1 9.48,46.49 6.4,14.3 15.7,25.88 27.99,34.65 12.26,8.69 26.83,13.07 43.58,13.07 25.97,0 46.23,-9.03 60.8,-27.02 14.55,-17.98 21.84,-40.17 21.84,-66.66 0,-16.58 -3.43,-31.67 -10.09,-45.27 -6.66,-13.59 -16.32,-24.39 -28.87,-32.28 -12.62,-7.98 -27.36,-11.93 -44.21,-11.93 -15.61,0 -29.55,4.12 -41.92,12.37 -12.37,8.33 -21.93,19.21 -28.6,32.89 -6.67,13.6 -10,28.16 -10,43.69zm203.69 126.32l-42.11 0 0 -34.12 -1.05 0c-21.58,27.28 -50,40.96 -85.27,40.96 -17.54,0 -33.68,-3.51 -48.5,-10.44 -14.74,-7.01 -27.28,-16.58 -37.63,-28.59 -10.27,-12.02 -18.25,-25.88 -23.86,-41.68 -5.62,-15.69 -8.42,-32.1 -8.42,-49.21 0,-23.77 4.82,-45.61 14.46,-65.61 9.66,-20.09 23.51,-35.97 41.59,-47.81 18.16,-11.84 39.11,-17.72 62.88,-17.72 16.59,0 32.29,3.69 47.02,10.97 14.74,7.36 27.28,17.72 37.73,31.05l1.05 0 0 -35.17 42.11 0 0 247.37zm149.48 0l-42.11 0 0 -211.58 -66.85 0 0 -35.79 176.85 0 0 35.79 -67.89 0 0 211.58zm150.61 -113.69l0 113.69 -42.1 0 0 -247.37 42.1 0 0 97.9 111.59 0 0 -97.9 42.1 0 0 247.37 -42.1 0 0 -113.69 -111.59 0zm252.65 -12.63c0,16.58 3.16,32.1 9.47,46.49 6.4,14.3 15.71,25.88 27.99,34.65 12.27,8.69 26.84,13.07 43.6,13.07 25.96,0 46.22,-9.03 60.79,-27.02 14.56,-17.98 21.84,-40.17 21.84,-66.66 0,-16.58 -3.42,-31.67 -10.09,-45.27 -6.66,-13.59 -16.32,-24.39 -28.86,-32.28 -12.63,-7.98 -27.37,-11.93 -44.21,-11.93 -15.62,0 -29.56,4.12 -41.93,12.37 -12.38,8.33 -21.93,19.21 -28.6,32.89 -6.67,13.6 -10,28.16 -10,43.69zm203.69 126.32l-42.1 0 0 -34.12 -1.06 0c-21.58,27.28 -50,40.96 -85.27,40.96 -17.54,0 -33.69,-3.51 -48.5,-10.44 -14.74,-7.01 -27.29,-16.58 -37.64,-28.59 -10.27,-12.02 -18.24,-25.88 -23.86,-41.68 -5.61,-15.69 -8.42,-32.1 -8.42,-49.21 0,-23.77 4.82,-45.61 14.47,-65.61 9.66,-20.09 23.51,-35.97 41.58,-47.81 18.16,-11.84 39.13,-17.72 62.9,-17.72 16.59,0 32.28,3.69 47.02,10.97 14.73,7.36 27.28,17.72 37.72,31.05l1.06 0 0 -35.17 42.1 0 0 247.37zm378.96 -154.74l90.01 -92.63 56.32 0 -105.71 105.26 125.71 142.11 -55.7 0 -99.57 -112.73 -11.06 11.06 0 101.67 -42.1 0 0 -247.37 42.1 0 0 92.63zm180.01 31.66c0,-24.03 5.78,-46.05 17.37,-66.14 11.58,-20 27.28,-35.87 47.19,-47.54 19.92,-11.67 41.76,-17.46 65.44,-17.46 18.08,0 35.01,3.33 50.8,10.09 15.78,6.75 29.65,16.14 41.58,28.24 11.93,12.2 21.14,26.15 27.72,42.11 6.58,15.88 9.91,32.73 9.91,50.7 0,23.6 -5.79,45.45 -17.45,65.45 -11.67,20 -27.47,35.79 -47.29,47.28 -19.91,11.49 -41.67,17.19 -65.27,17.19 -23.59,0 -45.35,-5.7 -65.26,-17.19 -19.83,-11.49 -35.62,-27.28 -47.29,-47.28 -11.67,-20 -17.45,-41.85 -17.45,-65.45zm42.11 -0.69c0,16.58 3.68,31.93 11.13,46.05 7.38,14.12 17.81,25.26 31.24,33.42 13.51,8.16 28.68,12.19 45.52,12.19 16.94,0 32.11,-4.03 45.53,-12.19 13.34,-8.16 23.78,-19.3 31.23,-33.33 7.46,-14.12 11.14,-29.48 11.14,-46.14 0,-16.5 -3.68,-31.85 -11.14,-45.88 -7.45,-14.04 -17.98,-25.18 -31.49,-33.34 -13.42,-8.16 -28.6,-12.28 -45.27,-12.28 -16.66,0 -31.84,4.12 -45.26,12.28 -13.51,8.16 -24.04,19.3 -31.5,33.43 -7.45,14.12 -11.13,29.38 -11.13,45.79zm254.13 126.93l-8.34 -38.95c9.04,0 15.88,-2.98 20.62,-8.94 4.65,-5.97 8.07,-16.41 10.18,-31.33 2.1,-15 3.42,-34.2 3.77,-57.72 0.44,-23.42 0.7,-61.31 0.7,-113.59l158.95 0 0 247.37 -42.11 0 0 -209.48 -77.45 0c0,44.65 -0.53,78.95 -1.58,102.9 -0.97,24.03 -3.59,44.3 -7.64,60.96 -4.11,16.67 -10.69,28.95 -19.64,36.94 -9.04,7.9 -21.49,11.84 -37.46,11.84zm283.77 -117.9c0.09,15.17 3.6,29.03 10.53,41.67 6.93,12.63 16.58,22.63 28.86,30 12.28,7.28 26.14,10.96 41.67,10.96 31.4,0 56.49,-17.01 75.26,-51.05l35.8 20.61c-11.93,22.28 -27.73,39.39 -47.28,51.42 -19.57,12.01 -41.85,17.97 -66.94,17.97 -24.03,0 -45.18,-5.61 -63.6,-16.84 -18.34,-11.22 -32.54,-26.58 -42.46,-46.05 -10,-19.39 -15,-40.88 -15,-64.48 0,-24.56 4.65,-47.11 14.04,-67.46 9.38,-20.35 23.15,-36.49 41.4,-48.34 18.16,-11.93 39.75,-17.89 64.56,-17.89 24.57,0 45.71,6.05 63.43,18.07 17.72,12.02 31.14,28.6 40.27,49.74 9.12,21.14 13.68,45 13.68,71.67l-194.22 0zm149.92 -35.79c-1.84,-11.67 -6.23,-22.45 -13.16,-32.46 -6.93,-10.08 -15.52,-17.9 -25.88,-23.68 -10.35,-5.71 -21.57,-8.6 -33.5,-8.6 -18.16,0 -34.57,6.31 -49.31,18.95 -14.64,12.63 -23.33,27.89 -25.88,45.79l147.73 0zm141.14 -4.21l90.01 -92.63 56.32 0 -105.71 105.26 125.71 142.11 -55.7 0 -99.57 -112.73 -11.06 11.06 0 101.67 -42.1 0 0 -247.37 42.1 0 0 92.63zm198.96 154.74l0 -247.37 42.1 0 0 211.58 111.59 0 0 -211.58 42.1 0 0 211.58 19.48 0 0 101.06 -42.11 0 0 -65.27 -173.16 0zm500.02 -102.19l-68.95 102.19 -51.59 0 75.71 -106.32c-17.02,-3.68 -30.96,-11.93 -41.67,-24.56 -10.79,-12.63 -16.14,-27.81 -16.14,-45.44 0,-24.22 8.69,-42.11 26.05,-53.69 17.46,-11.58 38.86,-17.36 64.48,-17.36l64.74 0 0 247.37 -42.1 0 0 -102.19 -10.53 0zm-12.2 -109.39c-13.86,0 -25.35,2.98 -34.3,8.94 -9.03,6.06 -13.5,15.53 -13.5,28.42 0,24.21 15.78,36.32 47.28,36.32l23.25 0 0 -73.68 -22.73 0zm-165.18 -35.79l0 247.37 -42.11 0 0 -247.37 42.11 0zm-20.96 -123.17c8.16,0 15.18,2.98 21.05,8.86 5.97,5.87 8.95,12.99 8.95,21.22 0,8.43 -2.98,15.54 -8.95,21.32 -5.87,5.7 -12.89,8.6 -21.05,8.6 -8.16,0 -15.26,-2.9 -21.23,-8.77 -5.96,-5.79 -8.95,-12.9 -8.95,-21.15 0,-8.06 3.07,-15.08 9.03,-21.04 6.06,-6.06 13.08,-9.04 21.15,-9.04z"/>
  <path class="fil1" d="M5416.14 3438.37l0 968.35 -1146.11 0c114.77,-17.43 224.37,-46.7 328.67,-87.94 181.24,-71.67 338.8,-173.55 472.08,-306.24 133.85,-132.68 236.93,-290.23 309.19,-472.66 13.28,-33.36 25.33,-67.2 36.17,-101.51zm-2575.93 -3438.37l2575.93 0 0 2511.78c-13.84,-39.06 -29.65,-77.43 -47.43,-115.09 -79.96,-168.81 -189.54,-315.7 -328.73,-439.5 -139.2,-124.39 -297.95,-220.34 -476.83,-287.28 -178.28,-67.51 -363.68,-101.28 -555.59,-101.28 -191.32,0 -376.72,33.77 -556.19,101.28 -375.08,139.89 -517,436.2 -894.5,436.2 -141.57,0 -267.73,-30.81 -377.9,-93 -110.17,-62.19 -196.07,-148.67 -256.47,-259.44 -61.03,-110.76 -91.23,-236.32 -91.23,-376.12 0,-136.82 30.2,-261.8 90.04,-375.53 59.82,-113.73 143.83,-203.37 252.92,-268.91 311.09,-186.92 810.45,-123.25 1041.12,186.86l0 -801.37c-116.21,-47.68 -247.01,-89.73 -375.14,-118.6zm-1661.12 968.35l0 -968.35 1146.11 0c-114.77,17.42 -224.37,46.7 -328.66,87.94 -181.25,71.67 -338.81,173.54 -472.08,306.23 -133.86,132.68 -236.93,290.24 -309.19,472.67 -13.28,33.36 -25.33,67.19 -36.18,101.51zm2565.75 3438.37l-2565.75 0 0 -2559.23c69.42,206.8 188.48,386.45 357.2,538.78 140.39,126.77 296.17,224.49 468.53,292.62 170.14,67.22 347.18,101.56 530.03,102.45 -6.58,54.24 -9.87,109.64 -9.87,166.21 0,212.05 36.13,409.29 108.39,590.54 72.27,181.85 175.93,339.41 310.38,473.28 134.45,133.26 292.01,235.74 472.67,307.41 104.3,41.24 213.7,70.51 328.42,87.94zm-494.86 -1455.03c0,151.06 33.76,287.28 101.88,409.3 68.12,122.02 159.93,217.98 276.02,286.69 116.1,68.69 242.26,103.06 379.68,103.06 137.42,0 264.18,-34.37 379.68,-103.66 116.09,-69.31 207.31,-164.67 275.43,-286.09 67.52,-122.02 101.28,-258.24 101.28,-409.3 0,-122.02 -34.35,-237.52 -102.46,-346.5 -68.12,-108.99 -160.53,-196.65 -276.62,-262.4 -116.1,-65.74 -242.26,-98.91 -377.31,-98.91 -135.05,0 -260.62,33.17 -377.31,98.91 -116.1,65.75 -209.09,153.41 -277.2,262.4 -68.71,108.98 -103.07,224.48 -103.07,346.5z"/>
</svg>
